<?xml version="1.0" standalone="no"?>
<!DOCTYPE svg PUBLIC "-//W3C//DTD SVG 20010904//EN"
 "http://www.w3.org/TR/2001/REC-SVG-20010904/DTD/svg10.dtd">
<svg version="1.0" xmlns="http://www.w3.org/2000/svg"
 width="1098.000000pt" height="1098.000000pt" viewBox="0 0 1098.000000 1098.000000"
 preserveAspectRatio="xMidYMid meet">
<metadata>
Created by potrace 1.11, written by Peter Selinger 2001-2013
</metadata>
<g transform="translate(0.000000,1098.000000) scale(0.100000,-0.100000)"
fill="#000000" stroke="none">
<path d="M4082 9340 c-134 -19 -262 -72 -360 -149 -29 -23 -127 -114 -219
-204 -187 -183 -184 -177 -279 -439 -62 -172 -159 -475 -179 -562 -8 -34 -23
-133 -34 -221 -12 -96 -34 -209 -55 -283 -55 -194 -88 -420 -118 -802 -18
-232 -17 -1188 0 -1375 53 -555 179 -961 402 -1300 142 -215 236 -313 406
-425 390 -257 720 -304 1093 -153 109 44 209 99 308 170 315 224 471 411 586
698 239 598 346 1548 309 2740 l-10 320 -56 270 c-67 325 -101 462 -167 660
-76 229 -116 304 -213 401 -44 44 -119 128 -165 187 -183 234 -340 338 -619
407 -214 53 -490 80 -630 60z"/>
<path d="M7275 9286 c-127 -24 -223 -84 -383 -240 -172 -167 -310 -354 -372
-503 -95 -227 -122 -626 -69 -998 62 -430 191 -764 438 -1130 154 -228 238
-370 326 -550 148 -303 231 -594 259 -905 l6 -65 -107 -45 c-158 -66 -213
-105 -359 -258 l-132 -136 -45 95 c-88 184 -122 347 -138 668 -15 308 -41 409
-130 506 -65 71 -108 90 -204 90 -67 0 -89 -4 -135 -27 -72 -35 -136 -99 -169
-168 -26 -54 -26 -58 -25 -280 0 -245 23 -460 68 -660 55 -238 293 -727 419
-857 l50 -52 3 -183 c3 -278 33 -384 136 -487 31 -31 81 -66 125 -88 144 -71
301 -55 457 47 39 25 100 74 136 109 l65 62 100 -40 c188 -76 229 -74 414 14
63 31 116 54 118 52 11 -12 142 -783 188 -1105 46 -325 101 -439 241 -498 51
-22 191 -22 267 0 78 23 136 69 170 136 70 141 61 301 -53 896 -55 287 -90
506 -90 570 0 37 3 43 32 55 46 19 194 118 254 170 72 61 156 165 238 292 38
59 71 105 74 102 2 -2 15 -71 28 -152 12 -81 50 -290 84 -463 33 -173 79 -441
101 -595 87 -604 148 -761 313 -806 70 -19 213 -6 282 25 133 61 174 146 174
359 0 163 -21 311 -111 782 -45 242 -83 475 -77 480 2 1 24 12 50 23 202 88
418 317 543 576 49 102 96 236 121 347 24 106 24 342 0 428 -56 204 -192 334
-392 376 -196 41 -333 -2 -533 -169 -63 -52 -118 -93 -123 -90 -4 3 -26 31
-47 63 -76 112 -164 166 -297 180 -165 19 -275 -20 -354 -126 l-45 -60 -120
-5 c-113 -4 -124 -6 -200 -42 -44 -21 -97 -44 -117 -51 l-38 -14 0 33 c0 19
-5 114 -10 212 -24 430 -45 508 -262 959 -273 568 -409 837 -477 944 -249 391
-337 742 -287 1139 30 234 52 284 142 318 40 15 44 15 87 -4 88 -39 145 -154
183 -366 19 -112 17 -274 -6 -451 -11 -82 -20 -166 -20 -185 0 -58 28 -148 60
-196 83 -120 268 -168 404 -104 57 28 131 106 162 174 131 287 94 861 -87
1310 -47 117 -99 193 -206 298 -106 104 -180 136 -473 202 -294 66 -500 86
-625 62z"/>
<path d="M1200 9271 c-160 -52 -304 -172 -542 -455 -117 -138 -137 -180 -184
-366 -72 -289 -74 -340 -40 -830 20 -276 42 -395 108 -570 108 -288 192 -452
331 -641 151 -205 247 -374 345 -604 147 -346 234 -705 236 -980 l1 -151 -35
-58 c-57 -95 -152 -191 -223 -225 -83 -40 -133 -46 -202 -26 -95 27 -155 105
-219 283 -60 168 -86 326 -106 642 -6 96 -17 206 -25 245 -37 178 -135 271
-295 282 -166 12 -309 -116 -338 -300 -19 -123 13 -550 58 -767 59 -284 230
-684 358 -836 154 -183 366 -307 647 -379 179 -45 306 -58 515 -52 193 5 249
16 367 71 86 41 403 266 445 316 36 44 157 282 191 375 59 166 62 199 62 700
0 438 -1 465 -23 561 -42 192 -90 312 -349 869 -175 375 -207 438 -331 657
-196 343 -269 512 -313 722 -32 149 -30 372 4 560 26 142 39 171 88 208 29 22
87 33 124 24 42 -11 100 -72 128 -133 62 -141 82 -395 52 -686 -19 -191 -15
-266 20 -344 88 -197 394 -228 530 -55 146 184 186 594 99 1005 -78 371 -267
688 -469 790 -239 119 -834 207 -1015 148z"/>
</g>
</svg>
